<svg xmlns="http://www.w3.org/2000/svg" viewBox="0 0 1600 900" role="img" aria-label="Bamboo forest abstract background">
  <defs>
    <linearGradient id="g1" x1="0" y1="0" x2="1" y2="1">
      <stop offset="0%" stop-color="#04110c"/>
      <stop offset="55%" stop-color="#123322"/>
      <stop offset="100%" stop-color="#0a1712"/>
    </linearGradient>
    <radialGradient id="g2" cx="72%" cy="24%" r="65%">
      <stop offset="0%" stop-color="#4fd08a" stop-opacity="0.38"/>
      <stop offset="100%" stop-color="#4fd08a" stop-opacity="0"/>
    </radialGradient>
  </defs>
  <rect width="1600" height="900" fill="url(#g1)"/>
  <rect width="1600" height="900" fill="url(#g2)"/>
  <g opacity="0.25" fill="#d7b46a">
    <rect x="180" y="120" width="12" height="760" rx="6" transform="rotate(-10 180 120)"/>
    <rect x="260" y="80" width="12" height="830" rx="6" transform="rotate(-7 260 80)"/>
    <rect x="380" y="150" width="12" height="720" rx="6" transform="rotate(-5 380 150)"/>
    <rect x="1180" y="90" width="12" height="820" rx="6" transform="rotate(8 1180 90)"/>
    <rect x="1280" y="130" width="12" height="760" rx="6" transform="rotate(6 1280 130)"/>
    <rect x="1380" y="160" width="12" height="700" rx="6" transform="rotate(4 1380 160)"/>
  </g>
  <g opacity="0.18" fill="#8ed6a8">
    <circle cx="380" cy="210" r="160"/>
    <circle cx="1220" cy="180" r="190"/>
  </g>
</svg>
